<svg width="35" height="35" viewBox="0 0 35 35" fill="none" xmlns="http://www.w3.org/2000/svg">
<rect width="35" height="35" rx="17.5" fill="url(#paint0_radial_3_894)"/>
<path d="M16 17C15.7335 17 15.467 16.9025 15.2566 16.6937L10.3051 11.7787C9.89831 11.3749 9.89831 10.7066 10.3051 10.3028C10.7119 9.89906 11.3852 9.89906 11.7919 10.3028L16 14.4799L20.2081 10.3028C20.6148 9.89906 21.2881 9.89906 21.6949 10.3028C22.1017 10.7066 22.1017 11.3749 21.6949 11.7787L16.7434 16.6937C16.533 16.9025 16.2665 17 16 17Z" fill="white"/>
<path d="M16 25C15.7335 25 15.467 24.9025 15.2566 24.6937L10.3051 19.7787C9.89831 19.3749 9.89831 18.7066 10.3051 18.3028C10.7119 17.8991 11.3852 17.8991 11.7919 18.3028L16 22.4799L20.2081 18.3028C20.6148 17.8991 21.2881 17.8991 21.6949 18.3028C22.1017 18.7066 22.1017 19.3749 21.6949 19.7787L16.7434 24.6937C16.533 24.9025 16.2665 25 16 25Z" fill="white"/>
<defs>
<radialGradient id="paint0_radial_3_894" cx="0" cy="0" r="1" gradientUnits="userSpaceOnUse" gradientTransform="translate(17.5 17.5) rotate(90) scale(17.5 17.5)">
<stop stop-color="white" stop-opacity="0.11"/>
<stop offset="1" stop-color="#999999" stop-opacity="0"/>
</radialGradient>
</defs>
</svg>
