<svg width="13" height="15" viewBox="0 0 13 15" fill="none" xmlns="http://www.w3.org/2000/svg">
<path opacity="0.4" d="M12.331 5.19524C11.6211 2.07185 8.89663 0.665649 6.50338 0.665649H6.49662C4.11013 0.665649 1.37886 2.06509 0.669 5.18848C-0.121988 8.67694 2.01436 11.6313 3.94788 13.4905C4.63322 14.1538 5.5496 14.5247 6.50338 14.5248C7.42282 14.5248 8.34226 14.18 9.05212 13.4905C10.9856 11.6313 13.122 8.6837 12.331 5.19524Z" fill="white"/>
<path d="M6.50409 8.58229C6.78376 8.58229 7.06068 8.5272 7.31905 8.42018C7.57742 8.31316 7.81219 8.15629 8.00994 7.95854C8.20769 7.76079 8.36455 7.52603 8.47157 7.26766C8.57859 7.00929 8.63368 6.73236 8.63368 6.4527C8.63368 6.17304 8.57859 5.89612 8.47157 5.63775C8.36455 5.37937 8.20769 5.14461 8.00994 4.94686C7.81219 4.74911 7.57742 4.59225 7.31905 4.48522C7.06068 4.3782 6.78376 4.32312 6.50409 4.32312C5.93929 4.32312 5.39763 4.54749 4.99825 4.94686C4.59888 5.34623 4.37451 5.8879 4.37451 6.4527C4.37451 7.0175 4.59888 7.55917 4.99825 7.95854C5.39763 8.35792 5.93929 8.58229 6.50409 8.58229Z" fill="white"/>
</svg>
