<svg width="16" height="17" viewBox="0 0 16 17" fill="none" xmlns="http://www.w3.org/2000/svg">
<path opacity="0.4" d="M7.30682 2.00195L3.64015 3.37528C2.94015 3.64195 2.36682 4.46861 2.36682 5.22195V10.6219C2.36682 11.1619 2.72015 11.8753 3.15349 12.1953L6.82015 14.9353C7.46682 15.4219 8.52682 15.4219 9.17349 14.9353L12.8402 12.1953C13.2735 11.8686 13.6268 11.1619 13.6268 10.6219V5.22195C13.6268 4.47528 13.0535 3.64195 12.3535 3.38195L8.68682 2.00861C8.31349 1.86195 7.68682 1.86195 7.30682 2.00195Z" fill="#FFC700"/>
<path d="M8.00016 11.4285C6.2535 11.4285 4.8335 10.0085 4.8335 8.26188C4.8335 6.51522 6.2535 5.09521 8.00016 5.09521C9.74683 5.09521 11.1668 6.51522 11.1668 8.26188C11.1668 10.0085 9.74683 11.4285 8.00016 11.4285ZM8.00016 6.09521C6.80683 6.09521 5.8335 7.06855 5.8335 8.26188C5.8335 9.45522 6.80683 10.4285 8.00016 10.4285C9.1935 10.4285 10.1668 9.45522 10.1668 8.26188C10.1668 7.06855 9.1935 6.09521 8.00016 6.09521Z" fill="#FFC700"/>
<path d="M7.33325 9.42851C7.16659 9.42851 6.99992 9.34185 6.90659 9.18851C6.76659 8.94851 6.83992 8.64185 7.07992 8.50185L7.58659 8.19518C7.63992 8.16185 7.66659 8.10851 7.66659 8.05518V7.43518C7.66659 7.16185 7.89325 6.93518 8.16659 6.93518C8.43992 6.93518 8.66659 7.15518 8.66659 7.42851V8.04851C8.66659 8.45518 8.44659 8.84185 8.09992 9.04851L7.58659 9.35518C7.51326 9.40851 7.41992 9.42851 7.33325 9.42851Z" fill="#FFC700"/>
</svg>
