<svg width="17" height="13" viewBox="0 0 17 13" fill="none" xmlns="http://www.w3.org/2000/svg">
<path d="M8.46061 8.55764C11.112 8.55764 13.3759 8.97798 13.3759 10.66C13.3759 12.3414 11.1265 12.777 8.46061 12.777C5.80924 12.777 3.54534 12.3567 3.54534 10.6753C3.54534 8.99329 5.79471 8.55764 8.46061 8.55764ZM12.6998 7.5448C13.7135 7.52601 14.8032 7.66519 15.2059 7.76401C16.059 7.93173 16.6201 8.27412 16.8526 8.77171C17.0491 9.18022 17.0491 9.65414 16.8526 10.062C16.497 10.8337 15.3505 11.0815 14.9049 11.1455C14.8129 11.1594 14.7389 11.0794 14.7485 10.9868C14.9762 8.84826 13.1655 7.8343 12.6971 7.60117C12.677 7.59073 12.6728 7.57472 12.6749 7.56498C12.6763 7.55802 12.6846 7.54688 12.6998 7.5448ZM4.30069 7.54508C4.31591 7.54716 4.32352 7.5583 4.32491 7.56456C4.32698 7.575 4.32283 7.59031 4.30346 7.60144C3.83435 7.83458 2.02364 8.84854 2.25128 10.9864C2.26096 11.0797 2.18762 11.159 2.0956 11.1458C1.65001 11.0818 0.503532 10.834 0.147894 10.0622C-0.049298 9.65372 -0.049298 9.1805 0.147894 8.77199C0.380373 8.2744 0.940814 7.93201 1.79393 7.7636C2.19731 7.66547 3.28636 7.52629 4.30069 7.54508ZM8.46061 0.413391C10.2658 0.413391 11.7132 1.86787 11.7132 3.68423C11.7132 5.4999 10.2658 6.95577 8.46061 6.95577C6.65544 6.95577 5.20798 5.4999 5.20798 3.68423C5.20798 1.86787 6.65544 0.413391 8.46061 0.413391ZM12.8763 0.958856C14.6199 0.958856 15.9891 2.60889 15.5228 4.44682C15.208 5.68418 14.0684 6.50606 12.7988 6.47266C12.6715 6.46918 12.5462 6.45735 12.4251 6.43647C12.3373 6.42116 12.293 6.32164 12.3428 6.24787C12.8271 5.53107 13.1032 4.66882 13.1032 3.74325C13.1032 2.7773 12.8015 1.87678 12.2778 1.1384C12.2612 1.11544 12.2487 1.07995 12.2653 1.0535C12.2792 1.03193 12.3048 1.02079 12.329 1.01523C12.5054 0.979038 12.6867 0.958856 12.8763 0.958856ZM4.12322 0.958786C4.3128 0.958786 4.49408 0.978968 4.6712 1.01516C4.69473 1.02072 4.72102 1.03255 4.73486 1.05343C4.75077 1.07988 4.73901 1.11537 4.7224 1.13833C4.19863 1.87671 3.89697 2.77723 3.89697 3.74318C3.89697 4.66875 4.17303 5.531 4.65737 6.2478C4.70718 6.32157 4.6629 6.42109 4.57503 6.4364C4.45325 6.45797 4.32871 6.46911 4.2014 6.47259C2.93176 6.50599 1.7922 5.68411 1.47738 4.44675C1.01035 2.60882 2.37962 0.958786 4.12322 0.958786Z" fill="#D7D7D7"/>
</svg>
